<svg width="80" height="80" viewBox="0 0 80 80" fill="none" xmlns="http://www.w3.org/2000/svg">
<circle cx="40.0003" cy="40.0003" r="26.3979" fill="#F4F7FA"/>
<path d="M11.2819 51.282C13.3045 56.4305 16.674 60.9407 21.0378 64.3402C25.4015 67.7398 30.5988 69.9037 36.0858 70.6055C41.5727 71.3072 47.1474 70.5209 52.2262 68.329C57.305 66.1371 61.7012 62.6201 64.9545 58.1463C68.2077 53.6725 70.1984 48.4063 70.7182 42.8992C71.2379 37.392 70.2676 31.8464 67.9088 26.8429C65.55 21.8394 61.8894 17.5621 57.3103 14.4587C52.7313 11.3553 47.4021 9.53995 41.8808 9.20276L41.568 14.324C46.1712 14.6051 50.6142 16.1185 54.4319 18.7059C58.2495 21.2932 61.3013 24.8593 63.2679 29.0308C65.2345 33.2022 66.0434 37.8257 65.6101 42.4171C65.1768 47.0085 63.5171 51.3989 60.8048 55.1288C58.0926 58.8587 54.4274 61.7908 50.1931 63.6183C45.9589 65.4457 41.3112 66.1012 36.7367 65.5162C32.1621 64.9311 27.829 63.127 24.1909 60.2928C20.5529 57.4585 17.7436 53.6984 16.0573 49.4059L11.2819 51.282Z" fill="url(#paint0_linear)"/>
<g filter="url(#filter0_d)">
<path d="M48.3782 36.7438L39.0572 46.0648L33.4672 40.4748L35.3261 38.6159L39.0572 42.3469L46.5193 34.8848L48.3782 36.7438ZM30.369 40.0002C30.369 36.9283 31.7137 34.1729 33.8231 32.2481L36.9609 35.3858V27.4755H29.0506L31.951 30.3759C29.367 32.7754 27.7322 36.19 27.7322 40.0002C27.7322 46.8426 32.9398 52.459 39.5977 53.1182V50.455C34.4032 49.809 30.369 45.3661 30.369 40.0002ZM54.1 40.0002C54.1 33.1577 48.8924 27.5414 42.2345 26.8822V29.5454C47.4289 30.1914 51.4632 34.6343 51.4632 40.0002C51.4632 43.072 50.1185 45.8275 48.009 47.7523L44.8713 44.6146V52.5249H52.7816L49.8812 49.6245C52.4652 47.225 54.1 43.8103 54.1 40.0002Z" fill="#110656"/>
</g>
<path d="M34.2307 39.2308L39.319 44.2308L48.0769 35.3846" stroke="#30E7A9" stroke-width="4"/>
<defs>
<filter id="filter0_d" x="26.7322" y="25.8822" width="30.3678" height="30.236" filterUnits="userSpaceOnUse" color-interpolation-filters="sRGB">
<feFlood flood-opacity="0" result="BackgroundImageFix"/>
<feColorMatrix in="SourceAlpha" type="matrix" values="0 0 0 0 0 0 0 0 0 0 0 0 0 0 0 0 0 0 127 0"/>
<feOffset dx="1" dy="1"/>
<feGaussianBlur stdDeviation="1"/>
<feColorMatrix type="matrix" values="0 0 0 0 0 0 0 0 0 0 0 0 0 0 0 0 0 0 0.25 0"/>
<feBlend mode="normal" in2="BackgroundImageFix" result="effect1_dropShadow"/>
<feBlend mode="normal" in="SourceGraphic" in2="effect1_dropShadow" result="shape"/>
</filter>
<linearGradient id="paint0_linear" x1="51.2819" y1="68.7182" x2="28.7181" y2="11.282" gradientUnits="userSpaceOnUse">
<stop stop-color="#B4ADE6"/>
<stop offset="0.84375" stop-color="#E3EDFF"/>
</linearGradient>
</defs>
</svg>
