<svg width="40" height="40" viewBox="0 0 40 40" fill="none" xmlns="http://www.w3.org/2000/svg">
<circle cx="20" cy="20" r="20" fill="#6851FF"/>
<path fill-rule="evenodd" clip-rule="evenodd" d="M13.1946 28.5714V28.5714C12.2196 28.5714 11.4283 27.7801 11.4283 26.8051V19.7402C11.4283 18.7653 12.2196 17.974 13.1946 17.974C14.1695 17.974 14.9608 18.7653 14.9608 19.7402V26.8051C14.9608 27.7801 14.1695 28.5714 13.1946 28.5714Z" stroke="white" stroke-width="1.5" stroke-linecap="round" stroke-linejoin="round"/>
<path fill-rule="evenodd" clip-rule="evenodd" d="M27.3257 28.5714V28.5714C26.3507 28.5714 25.5595 27.7802 25.5595 26.8052V17.0909C25.5595 16.116 26.3507 15.3247 27.3257 15.3247C28.3006 15.3247 29.0919 16.116 29.0919 17.0909V26.8052C29.0919 27.7802 28.3006 28.5714 27.3257 28.5714Z" stroke="white" stroke-width="1.5" stroke-linecap="round" stroke-linejoin="round"/>
<path fill-rule="evenodd" clip-rule="evenodd" d="M20.2594 28.5713V28.5713C19.2844 28.5713 18.4931 27.7801 18.4931 26.8051V10.9091C18.4931 9.93409 19.2844 9.14282 20.2594 9.14282C21.2343 9.14282 22.0256 9.93409 22.0256 10.9091V26.8051C22.0256 27.7801 21.2343 28.5713 20.2594 28.5713Z" stroke="white" stroke-width="1.5" stroke-linecap="round" stroke-linejoin="round"/>
</svg>
