<svg width="48" height="48" viewBox="0 0 48 48" fill="none" xmlns="http://www.w3.org/2000/svg">
<circle cx="24" cy="24" r="24" fill="#6851FF"/>
<path d="M28.3081 33.5999V30.8848C28.3081 29.314 26.6446 28.0363 24.599 28.0363C22.5535 28.0363 20.89 29.314 20.89 30.8848V33.5999" stroke="white" stroke-width="1.5" stroke-linecap="round" stroke-linejoin="round"/>
<path fill-rule="evenodd" clip-rule="evenodd" d="M24.6009 25.2549C25.8787 25.2549 26.9191 24.2154 26.9191 22.9367C26.9191 21.6589 25.8787 20.6185 24.6009 20.6185C23.3231 20.6185 22.2827 21.6589 22.2827 22.9367C22.2827 24.2154 23.3231 25.2549 24.6009 25.2549Z" stroke="white" stroke-width="1.5" stroke-linecap="round" stroke-linejoin="round"/>
<path d="M32.9463 16.9087H19.0372" stroke="white" stroke-width="1.5" stroke-linecap="round" stroke-linejoin="round"/>
<path d="M17.1818 33.6C15.6454 33.6 14.4 32.3546 14.4 30.8181V15.9818C14.4 14.4453 15.6454 13.2 17.1818 13.2H32.9455V33.6H32.0182" stroke="white" stroke-width="1.5" stroke-linecap="round" stroke-linejoin="round"/>
</svg>
