<svg width="28" height="38" viewBox="0 0 28 38" fill="none" xmlns="http://www.w3.org/2000/svg">
<path d="M6.42431 11.9996C6.14139 11.7971 5.7703 11.7617 5.45443 11.9075C3.42311 12.842 1.57781 15.4891 0.63942 18.8154C-0.624527 23.2942 0.00332858 27.8878 2.3636 31.4166C4.90893 35.2244 9.56795 37.59 14.5225 37.59C18.4873 37.59 22.1793 36.0577 24.6515 33.3854C29.4185 28.2342 27.9492 20.7314 24.0328 15.9823C23.2834 15.0734 22.5436 14.2528 21.8281 13.4587C18.3851 9.63977 16.11 7.11721 18.5352 1.34443C18.6811 0.997555 18.6128 0.598363 18.3613 0.319316C18.1089 0.0402694 17.717 -0.0682489 17.3585 0.0431761C11.4515 1.85359 9.11934 5.59069 10.2254 11.4676C10.2956 11.8397 10.3969 12.2418 10.5044 12.6681C11.1715 15.304 11.2398 16.6595 9.82326 17.2327C9.15519 17.501 8.52782 17.019 8.15431 16.6029C7.30457 15.6596 6.70772 13.9936 6.82399 12.8885C6.85984 12.5422 6.70724 12.2025 6.42431 11.9996ZM10.549 19.029C13.7832 17.7215 12.9068 14.26 12.3836 12.1924C12.2833 11.7966 12.1889 11.4221 12.1302 11.1096C11.343 6.92924 12.5532 4.24244 16.0369 2.61176C14.4736 8.19658 17.2379 11.2622 20.3883 14.7561C21.0893 15.5342 21.815 16.3393 22.5373 17.2152C25.836 21.2149 27.1983 27.7802 23.2291 32.0691C21.1217 34.3461 17.9486 35.6522 14.522 35.6522C10.2065 35.6522 6.16513 33.6165 3.9749 30.3396C1.93098 27.2822 1.39469 23.2738 2.50458 19.3415C3.05831 17.3824 4.00058 15.6475 5.04119 14.5788C5.3183 15.7866 5.91951 17.0171 6.71402 17.8993C7.83408 19.1424 9.24433 19.5551 10.549 19.029Z" fill="#5EEDA3"/>
</svg>
