<svg id="wave" style="transform:rotate(180deg); transition: 0.3s" viewBox="0 0 1440 490" version="1.1" xmlns="http://www.w3.org/2000/svg"><defs><linearGradient id="sw-gradient-0" x1="0" x2="0" y1="1" y2="0"><stop stop-color="rgba(104, 81, 255, 1)" offset="0%"></stop><stop stop-color="rgba(167, 0, 241, 1)" offset="100%"></stop></linearGradient></defs><path style="transform:translate(0, 0px); opacity:1" fill="url(#sw-gradient-0)" d="M0,245L48,269.5C96,294,192,343,288,343C384,343,480,294,576,253.2C672,212,768,180,864,179.7C960,180,1056,212,1152,187.8C1248,163,1344,82,1440,73.5C1536,65,1632,131,1728,130.7C1824,131,1920,65,2016,32.7C2112,0,2208,0,2304,32.7C2400,65,2496,131,2592,130.7C2688,131,2784,65,2880,49C2976,33,3072,65,3168,106.2C3264,147,3360,196,3456,220.5C3552,245,3648,245,3744,261.3C3840,278,3936,310,4032,326.7C4128,343,4224,343,4320,310.3C4416,278,4512,212,4608,212.3C4704,212,4800,278,4896,326.7C4992,376,5088,408,5184,375.7C5280,343,5376,245,5472,212.3C5568,180,5664,212,5760,220.5C5856,229,5952,212,6048,220.5C6144,229,6240,261,6336,269.5C6432,278,6528,261,6624,228.7C6720,196,6816,147,6864,122.5L6912,98L6912,490L6864,490C6816,490,6720,490,6624,490C6528,490,6432,490,6336,490C6240,490,6144,490,6048,490C5952,490,5856,490,5760,490C5664,490,5568,490,5472,490C5376,490,5280,490,5184,490C5088,490,4992,490,4896,490C4800,490,4704,490,4608,490C4512,490,4416,490,4320,490C4224,490,4128,490,4032,490C3936,490,3840,490,3744,490C3648,490,3552,490,3456,490C3360,490,3264,490,3168,490C3072,490,2976,490,2880,490C2784,490,2688,490,2592,490C2496,490,2400,490,2304,490C2208,490,2112,490,2016,490C1920,490,1824,490,1728,490C1632,490,1536,490,1440,490C1344,490,1248,490,1152,490C1056,490,960,490,864,490C768,490,672,490,576,490C480,490,384,490,288,490C192,490,96,490,48,490L0,490Z"></path></svg>